<svg xmlns="http://www.w3.org/2000/svg" xml:space="preserve" viewBox="0 0 90.44 21.7"><g fill="#000000"><path d="M24.77 0H22a.08.08 0 0 0-.09.1v13.93c0 .11.06.17.18.17h2.63c.14 0 .2-.07.2-.2v-.48c-.01-.13.03-.15.13-.06a3.1 3.1 0 0 0 1.84.96 4.15 4.15 0 0 0 4.99-3.68c-.08-.48-.07-.92.03-1.33-.1-1-.44-1.83-1-2.46-1.27-1.4-2.89-1.8-4.86-1.18-.33.1-.69.34-.95.58-.11.1-.17.08-.17-.07V.17c0-.11-.05-.16-.16-.16zm2.02 8.05a1.89 1.95-.1 0 1 1.89 1.94 1.89 1.95-.1 0 1-1.89 1.95A1.89 1.95-.1 0 1 24.9 10a1.89 1.95-.1 0 1 1.89-1.95zM87.88 0c-.1 0-.2.02-.3.04-.07.01-.1.06-.1.13l.01 6.1a.17.17 0 0 1-.24.15.62.62 0 0 1-.29-.3 4.26 4.26 0 0 0-6.4 2.56c-.17.64-.12 1.36-.1 2 .03.63.23 1.24.6 1.81a4.11 4.11 0 0 0 4.23 1.95c.71-.08 1.37-.4 1.97-.93.1-.08.15-.06.17.07 0 .1-.02.2-.08.3a.2.2 0 0 0 .17.3l2.87-.1c-.11-4.6-.14-9.12-.08-13.57 0-.13.05-.3.13-.48L88.2.02a2.25 2.25 0 0 0-.33-.02zm-2.27 8.05a1.94 1.94 0 0 1 1.57.91l.2 1.63a1.93 1.93.4 0 1-1.26 1.25 1.93 1.94 62.8 0 1-2.12-.68 1.94 1.93 33.9 0 1-.33-1.67c.15-.2.25-.4.3-.64a1.94 1.94 0 0 1 1.64-.8zM36.14 1.94q-.18.46-.09 1.02a1.84 1.77 3 0 1-1.35 1.08 1.83 1.77 4.4 0 1-2.04-1.03 1.83 1.76 2.5 0 1 .48-2.03 1.83 1.76 3.5 0 1 2.49.07 1.79 1.84 88.3 0 1 .5.89zM51.07 8.9v5.22a.08.08 0 0 1-.08.08h-3.06a.08.08 0 0 1-.08-.08V.7a.08.08 0 0 1 .08-.09h3.06a.08.08 0 0 1 .08.08v5.23a.08.08 0 0 0 .08.09h4.04a.08.08 0 0 0 .08-.09V.7a.08.08 0 0 1 .09-.08h3.08a.08.08 0 0 1 .08.09v13.42a.08.08 0 0 1-.08.08h-3.08a.08.08 0 0 1-.08-.09l-.02-5.21a.08.08 0 0 0-.08-.09h-4.03a.08.08 0 0 0-.08.08zM9.4 3.77l-.06 2.1Q8.81 7.82 6.9 8.55a.15.15 59.6 0 0-.06.23l4.36 5.24q.15.17-.08.17l-3.71.01q-.17 0-.26-.13L3.33 9.13q-.09-.1-.09.03v4.9q0 .14-.14.14H.17q-.13 0-.16-.13-.02-.06 0-.14.13-.14.13-.5Q.2 7.26.1 1.07l-.01-.04L.05.98Q-.01.8.02.7.05.61.23.61h4.84q.5 0 1.46.25 2.43.62 2.86 2.9z"/><path d="M15.92 5.47a4.54 5.19 89.8 0 0-5.17 4.55 4.54 5.19 89.8 0 0 5.2 4.52A4.54 5.19 89.8 0 0 21.13 10a4.54 5.19 89.8 0 0-5.2-4.52zm.17 2.58a1.88 1.95 4.5 0 1 1.72 2.1 1.88 1.95 4.5 0 1-2.03 1.8 1.88 1.95 4.5 0 1-1.72-2.1 1.88 1.95 4.5 0 1 2.03-1.8zm21.32 5.82V6.03q-.06-.08-.05-.16.02-.13.15-.13h2.8q.18 0 .17.18l-.02.42q-.02.23.15.07 1.79-1.64 4.36-.4 1.21.57 1.52 1.79.15.57.1 2.2-.06 2.14 0 4.01 0 .19-.17.19H43.7q-.16 0-.16-.16.02-2.53 0-4.54 0-.38-.17-.78c-.74-1.73-2.93-.7-2.92.88v4.45q0 .15-.14.15h-2.78q-.15 0-.2-.15-.03-.11.07-.18zm27.21-8.4a5.23 5.23 0 0 0-4.69 2.42c-.25.42-.41.9-.47 1.44-.19 1.73.3 3.07 1.48 4a6.06 6.06 0 0 0 5.09 1c1.88-.46 3.58-1.92 3.6-3.92 0-.43 0-.85-.02-1.25a1.36 1.34 34 0 0-.09-.43 5.23 5.23 0 0 0-4.9-3.26zm-.03 2.58a1.89 1.95 1.6 0 1 1.84 2 1.89 1.95 1.6 0 1-1.95 1.9 1.89 1.95 1.6 0 1-1.83-2 1.89 1.95 1.6 0 1 1.94-1.9zM74.9 5.48a6 6 0 0 0-2.15.44c-2.1.84-3.04 2.4-2.83 4.66.21 2.32 2.22 3.7 4.42 3.88a5.7 5.7 0 0 0 4.38-1.26 3.8 3.8 0 0 0 1.34-2.73c.12-1.75-.46-3.07-1.73-3.96a5.84 5.84 0 0 0-3.44-1.03zm.2 2.58a1.9 1.94 3.3 0 1 1.78 2.05 1.9 1.94 3.3 0 1-2 1.83 1.9 1.94 3.3 0 1-1.78-2.05 1.9 1.94 3.3 0 1 2-1.83zm-39.32 6.05a.08.08 0 0 1-.08.09h-2.86a.08.08 0 0 1-.08-.09V5.82a.08.08 0 0 1 .08-.08h2.86a.08.08 0 0 1 .08.08zm19.5 7.54a.05.05 0 0 1-.05.05h-2.72a.07.2 0 0 1-.07-.2v-4a.07.2 0 0 1 .07-.2h2.72a.05.05 0 0 1 .05.04zm-47.31-.24q.24-1.6-.03-3.22h.78q.14 0 .14.14v3.11q0 .18-.18.18l-.6-.03q-.07 0-.11-.04-.08-.07 0-.14zm4.83-1.47.01-1.7q0-.07.07-.07h.67q.08 0 .08.07v3.23q0 .14-.15.14h-.4a.36.35 69.3 0 1-.28-.13l-1.35-1.55q-.23-.27-.22.08l.04 1.48a.12.12 89.4 0 1-.12.12h-.7q-.1 0-.1-.1c-.02-.68 0-1.38-.06-2.06q-.05-.54.05-1.14.02-.15.17-.15c.26 0 .6-.06.78.17l1.37 1.66q.15.17.15-.05zm3.94.38.89-2.05q.04-.1.16-.1h.67q.16 0 .1.15l-1.32 2.96a.66.66 0 0 1-1.2 0l-1.32-2.97q-.07-.14.09-.14h.75q.1 0 .15.1l.85 2.05q.09.2.18 0zm2.87.99q.23-1.5 0-2.97-.06-.05 0-.13a.11.11 19.1 0 1 .1-.04h2.56a.12.12 0 0 1 .12.13l-.04.42q-.01.15-.17.15h-1.52q-.12 0-.12.11l-.03.39q0 .12.12.12h1.45q.13 0 .13.14l-.02.42a.15.15 1.1 0 1-.15.14h-1.37a.13.13 0 0 0-.14.12l-.01.5q0 .1.09.1h1.76q.07 0 .08.07l.02.56q0 .07-.06.07h-2.66a.17.17 0 0 1-.16-.15l.02-.15zm6.79-1.19q-.1.48-.02.89c-.54.84-1.7.66-2.6.45q-.36-.09-.25-.44l.04-.14q.11-.35.42-.16.4.23 1.37.17a.22.22 68.2 0 0 .16-.36q-.15-.18-.47-.22-.84-.1-1.42-.61l-.05-.86c.4-.85 1.57-.76 2.46-.57a.28.28 0 0 1 .2.38l-.1.26q-.07.2-.27.12-.47-.2-1.16-.15-.24.02-.28.32a.26.26 4.3 0 0 .25.3q1.05.03 1.72.62zm2.89-1.17.03 2.48q-.03.3-.76.15-.13-.03-.13-.17v-2.4q0-.14-.15-.14h-.9q-.1 0-.11-.1l-.02-.48q0-.12.12-.12h3.02q.1 0 .1.11l-.02.48q0 .12-.13.12l-.99-.02q-.04 0-.05.02-.03.03-.01.07zm7.71-.79q-.28 1.62-.02 3.24.12-.02.02.13-.05.07-.13.07h-.48q-.16.01-.26-.11l-1.36-1.57q-.18-.2-.17.06l.03 1.5q0 .12-.12.12h-.67q-.14.01-.14-.13l.01-3.16q0-.14.14-.15.32-.02.58.05.1.02.17.1l1.38 1.65q.13.16.13-.04l.02-1.62q0-.11.11-.12zm3.59.04h-.78a1.56 1.56 0 0 0-1.56 1.55v.28a1.56 1.56 0 0 0 1.56 1.55h.78a1.56 1.56 0 0 0 1.56-1.56v-.27a1.56 1.56 0 0 0-1.56-1.56zm-.4.66a1.03 1.09 82.1 0 1 1.08.95 1.04 1.1 82.2 0 1-1.07 1.12 1.04 1.09 82.9 0 1-.94-.48l-.1-.93a1.04 1.1 82.2 0 1 .64-.6 1.03 1.09 82.1 0 1 .4-.06zm4.66 1.46.7-2.13a.03.03 0 0 1 .03-.02h.87a.03.03 0 0 1 .03.02l.53 1.7a.03.03 0 0 0 0 .02l.16.13a.03.03 0 0 1 0 .03l.01.2a.03.03 0 0 0 .07.02l.68-2.1a.03.03 0 0 1 .03-.02h.87a.03.03 0 0 1 .02.05l-1.12 3.37a.03.03 0 0 1-.03.02h-.98a.03.03 0 0 1-.03-.02l-.65-2.02a.03.03 0 0 0-.06 0l-.72 2.02a.03.03 0 0 1-.03.02h-.93a.03.03 0 0 1-.03-.02l-1.14-3.37a.03.03 0 0 1 .04-.04h.9a.03.03 0 0 1 .03.01l.7 2.13a.03.03 0 0 0 .05 0z"/></g></svg>